<mxfile host="drawio-plugin" modified="2022-10-03T17:26:30.805Z" agent="5.0 (Windows NT 6.2; Win64; x64) AppleWebKit/537.36 (KHTML, like Gecko) Chrome/97.0.4692.45 Safari/537.36" version="15.5.4" etag="o9pu6C_AnS1kZ3zWF3pj" type="embed"><diagram id="C5RBs43oDa-KdzZeNtuy" name="Page-1"><mxGraphModel dx="1382" dy="667" grid="1" gridSize="10" guides="1" tooltips="1" connect="1" arrows="1" fold="1" page="1" pageScale="1" pageWidth="827" pageHeight="1169" math="0" shadow="0"><root><mxCell id="WIyWlLk6GJQsqaUBKTNV-0"/><mxCell id="WIyWlLk6GJQsqaUBKTNV-1" parent="WIyWlLk6GJQsqaUBKTNV-0"/><mxCell id="0" value="" style="edgeStyle=orthogonalEdgeStyle;rounded=0;orthogonalLoop=1;jettySize=auto;html=1;entryX=0.5;entryY=0;entryDx=0;entryDy=0;" edge="1" parent="WIyWlLk6GJQsqaUBKTNV-1" source="1" target="4"><mxGeometry relative="1" as="geometry"><mxPoint x="400" y="230" as="targetPoint"/></mxGeometry></mxCell><mxCell id="1" value="1~10の乱数を生成する" style="rounded=0;whiteSpace=wrap;html=1;" vertex="1" parent="WIyWlLk6GJQsqaUBKTNV-1"><mxGeometry x="320" y="120" width="160" height="60" as="geometry"/></mxCell><mxCell id="2" value="乱数用の変数を定義" style="rounded=1;whiteSpace=wrap;html=1;" vertex="1" parent="WIyWlLk6GJQsqaUBKTNV-1"><mxGeometry x="320" y="20" width="160" height="60" as="geometry"/></mxCell><mxCell id="3" value="" style="endArrow=none;html=1;rounded=0;exitX=0.5;exitY=0;exitDx=0;exitDy=0;" edge="1" parent="WIyWlLk6GJQsqaUBKTNV-1" source="1"><mxGeometry width="50" height="50" relative="1" as="geometry"><mxPoint x="400" y="110" as="sourcePoint"/><mxPoint x="399.5" y="80" as="targetPoint"/></mxGeometry></mxCell><mxCell id="4" value="乱数の値が1以外の場合" style="rhombus;whiteSpace=wrap;html=1;rounded=0;" vertex="1" parent="WIyWlLk6GJQsqaUBKTNV-1"><mxGeometry x="320" y="240" width="160" height="80" as="geometry"/></mxCell><mxCell id="5" value="" style="endArrow=none;html=1;rounded=0;" edge="1" parent="WIyWlLk6GJQsqaUBKTNV-1"><mxGeometry width="50" height="50" relative="1" as="geometry"><mxPoint x="480" y="280" as="sourcePoint"/><mxPoint x="560" y="280" as="targetPoint"/></mxGeometry></mxCell><mxCell id="6" value="" style="endArrow=none;html=1;rounded=0;" edge="1" parent="WIyWlLk6GJQsqaUBKTNV-1"><mxGeometry width="50" height="50" relative="1" as="geometry"><mxPoint x="560" y="280" as="sourcePoint"/><mxPoint x="560" y="100" as="targetPoint"/></mxGeometry></mxCell><mxCell id="7" value="" style="endArrow=none;html=1;rounded=0;" edge="1" parent="WIyWlLk6GJQsqaUBKTNV-1"><mxGeometry width="50" height="50" relative="1" as="geometry"><mxPoint x="560" y="100" as="sourcePoint"/><mxPoint x="400" y="100" as="targetPoint"/></mxGeometry></mxCell><mxCell id="8" value="" style="edgeStyle=orthogonalEdgeStyle;rounded=0;orthogonalLoop=1;jettySize=auto;html=1;entryX=0.5;entryY=0;entryDx=0;entryDy=0;" edge="1" parent="WIyWlLk6GJQsqaUBKTNV-1"><mxGeometry relative="1" as="geometry"><mxPoint x="399.5" y="320" as="sourcePoint"/><mxPoint x="399.5" y="380" as="targetPoint"/></mxGeometry></mxCell><mxCell id="9" value="乱数の値を出力する" style="rounded=0;whiteSpace=wrap;html=1;" vertex="1" parent="WIyWlLk6GJQsqaUBKTNV-1"><mxGeometry x="320" y="380" width="160" height="60" as="geometry"/></mxCell></root></mxGraphModel></diagram></mxfile>